<svg width="69" height="10" viewBox="0 0 69 10" fill="none" xmlns="http://www.w3.org/2000/svg">
<path d="M0.84 9V0.599999H4.68C5.448 0.599999 6.108 0.724 6.66 0.972C7.22 1.22 7.652 1.58 7.956 2.052C8.26 2.516 8.412 3.068 8.412 3.708C8.412 4.34 8.26 4.888 7.956 5.352C7.652 5.808 7.22 6.16 6.66 6.408C6.108 6.648 5.448 6.768 4.68 6.768H2.16L3.216 5.772V9H0.84ZM6.036 9L3.948 5.94H6.48L8.58 9H6.036ZM3.216 6.024L2.16 4.932H4.536C5.032 4.932 5.4 4.824 5.64 4.608C5.888 4.392 6.012 4.092 6.012 3.708C6.012 3.316 5.888 3.012 5.64 2.796C5.4 2.58 5.032 2.472 4.536 2.472H2.16L3.216 1.38V6.024ZM9.30281 9V7.512L14.2468 1.644L14.5348 2.484H9.41081V0.599999H16.6468V2.088L11.7028 7.956L11.4148 7.116H16.8268V9H9.30281ZM19.9913 7.14L19.8593 4.476L23.4713 0.599999H26.0873L22.4873 4.5L21.1673 5.88L19.9913 7.14ZM17.8673 9V0.599999H20.2193V9H17.8673ZM23.5073 9L20.7713 5.532L22.3193 3.876L26.2673 9H23.5073ZM26.8908 9V0.599999H30.7308C31.4988 0.599999 32.1588 0.724 32.7108 0.972C33.2708 1.22 33.7028 1.58 34.0068 2.052C34.3108 2.516 34.4628 3.068 34.4628 3.708C34.4628 4.34 34.3108 4.888 34.0068 5.352C33.7028 5.808 33.2708 6.16 32.7108 6.408C32.1588 6.648 31.4988 6.768 30.7308 6.768H28.2108L29.2668 5.772V9H26.8908ZM32.0868 9L29.9988 5.94H32.5308L34.6308 9H32.0868ZM29.2668 6.024L28.2108 4.932H30.5868C31.0828 4.932 31.4508 4.824 31.6908 4.608C31.9388 4.392 32.0628 4.092 32.0628 3.708C32.0628 3.316 31.9388 3.012 31.6908 2.796C31.4508 2.58 31.0828 2.472 30.5868 2.472H28.2108L29.2668 1.38V6.024ZM41.3896 0.599999H43.7656V9H41.3896V0.599999ZM38.1496 9H35.7736V0.599999H38.1496V9ZM41.5576 5.724H37.9816V3.756H41.5576V5.724ZM67.4108 9.108C67.0268 9.108 66.7028 8.98 66.4388 8.724C66.1748 8.468 66.0428 8.144 66.0428 7.752C66.0428 7.344 66.1748 7.02 66.4388 6.78C66.7028 6.532 67.0268 6.408 67.4108 6.408C67.7948 6.408 68.1188 6.532 68.3828 6.78C68.6468 7.02 68.7788 7.344 68.7788 7.752C68.7788 8.144 68.6468 8.468 68.3828 8.724C68.1188 8.98 67.7948 9.108 67.4108 9.108Z" fill="white"/>
<path d="M45.4416 9V0.599999H47.3976L50.8776 6.312H49.8456L53.2296 0.599999H55.1856L55.2096 9H53.0256L53.0016 3.924H53.3736L50.8416 8.172H49.7856L47.1816 3.924H47.6376V9H45.4416ZM56.8908 9V0.599999H58.8468L63.4788 6.192H62.5548V0.599999H64.8828V9H62.9268L58.2948 3.408H59.2188V9H56.8908Z" fill="#7D67C1"/>
</svg>
