<svg width="12" height="10" viewBox="0 0 12 10" fill="none" xmlns="http://www.w3.org/2000/svg">
<path d="M0.84 9V0.599999H4.68C5.448 0.599999 6.108 0.724 6.66 0.972C7.22 1.22 7.652 1.58 7.956 2.052C8.26 2.516 8.412 3.068 8.412 3.708C8.412 4.34 8.26 4.888 7.956 5.352C7.652 5.808 7.22 6.16 6.66 6.408C6.108 6.648 5.448 6.768 4.68 6.768H2.16L3.216 5.772V9H0.84ZM6.036 9L3.948 5.94H6.48L8.58 9H6.036ZM3.216 6.024L2.16 4.932H4.536C5.032 4.932 5.4 4.824 5.64 4.608C5.888 4.392 6.012 4.092 6.012 3.708C6.012 3.316 5.888 3.012 5.64 2.796C5.4 2.58 5.032 2.472 4.536 2.472H2.16L3.216 1.38V6.024ZM10.5748 9.108C10.1908 9.108 9.86681 8.98 9.60281 8.724C9.33881 8.468 9.20681 8.144 9.20681 7.752C9.20681 7.344 9.33881 7.02 9.60281 6.78C9.86681 6.532 10.1908 6.408 10.5748 6.408C10.9588 6.408 11.2828 6.532 11.5468 6.78C11.8108 7.02 11.9428 7.344 11.9428 7.752C11.9428 8.144 11.8108 8.468 11.5468 8.724C11.2828 8.98 10.9588 9.108 10.5748 9.108Z" fill="#7D67C1"/>
</svg>
